Coordinates
version=1
nRows=26
nColumns=38
inDegrees=no

Units are S.I. units (second, meters, Newtons, ...)
If the header above contains a line with 'inDegrees', this indicates whether rotational values are in degrees (yes) or radians (no).

endheader
time	pelvis_tilt	pelvis_list	pelvis_rotation	pelvis_tx	pelvis_ty	pelvis_tz	hip_flexion_r	hip_adduction_r	hip_rotation_r	knee_angle_r	ankle_angle_r	subtalar_angle_r	mtp_angle_r	hip_flexion_l	hip_adduction_l	hip_rotation_l	knee_angle_l	ankle_angle_l	subtalar_angle_l	mtp_angle_l	lumbar_extension	lumbar_bending	lumbar_rotation	arm_flex_r	arm_add_r	arm_rot_r	elbow_flex_r	pro_sup_r	wrist_flex_r	wrist_dev_r	arm_flex_l	arm_add_l	arm_rot_l	elbow_flex_l	pro_sup_l	wrist_flex_l	wrist_dev_l
3.08	0.00817847	-0.00920164	-0.0150256	0.906202	1.01414	-0.500525	0.406577	0.0238188	0.027565	0.05817	0.00859916	-0.0599867	-7.96456e-11	-0.343528	0.0358033	-0.0667413	0.0322158	0.232341	0.0503929	-3.47181e-11	-0.283706	0.0403378	-0.111841	-0.359848	-0.103292	-0.298132	0.740424	1.50025	-8.8546e-12	1.67228e-11	0.0759028	-0.230935	-0.0876606	1.09629	1.46721	-5.02041e-12	1.26636e-11
3.085	0.00778959	-0.00960784	-0.0127954	0.913497	1.01356	-0.500418	0.406239	0.0236304	0.0256488	0.0630896	-0.00120154	-0.0621149	-7.96456e-11	-0.348652	0.0340544	-0.0689908	0.034699	0.227732	0.0539921	-3.47181e-11	-0.281201	0.0427856	-0.114026	-0.358019	-0.103639	-0.2974	0.740545	1.49987	-8.8546e-12	1.67228e-11	0.075299	-0.230302	-0.0859809	1.09622	1.46835	-5.02041e-12	1.26636e-11
3.09	0.00762988	-0.0100853	-0.0104757	0.920865	1.01303	-0.500302	0.405779	0.0234608	0.0233059	0.0696945	-0.0102342	-0.0642737	-7.96456e-11	-0.353514	0.0320456	-0.0714405	0.038339	0.222908	0.0574526	-3.47181e-11	-0.278818	0.0453019	-0.116225	-0.356013	-0.10408	-0.296726	0.740619	1.49965	-8.8546e-12	1.67228e-11	0.0743123	-0.229583	-0.0845294	1.09613	1.46959	-5.02041e-12	1.26636e-11
3.095	0.00769795	-0.0106352	-0.0080809	0.928305	1.01255	-0.500174	0.405196	0.0233166	0.0205461	0.0779468	-0.0184932	-0.0664587	-7.96456e-11	-0.358113	0.0297789	-0.0740884	0.0431252	0.217862	0.0607655	-3.47181e-11	-0.276552	0.0478849	-0.118431	-0.35383	-0.104615	-0.296108	0.740646	1.49957	-8.8546e-12	1.67228e-11	0.0729484	-0.228776	-0.0833024	1.09601	1.47092	-5.02041e-12	1.26636e-11
3.1	0.00797984	-0.0112625	-0.00563831	0.935818	1.01212	-0.500032	0.40448	0.0232181	0.0174011	0.0877394	-0.0259729	-0.0686587	-7.96456e-11	-0.362449	0.0272596	-0.0769336	0.0490296	0.212575	0.0639069	-3.47181e-11	-0.274397	0.0505292	-0.120613	-0.351473	-0.105245	-0.295542	0.740631	1.49961	-8.8546e-12	1.67228e-11	0.0712224	-0.227876	-0.0822929	1.09584	1.47232	-5.02041e-12	1.26636e-11
3.105	0.00845262	-0.0119703	-0.00319349	0.943402	1.01173	-0.499872	0.403626	0.0232034	0.0139313	0.0988898	-0.0326763	-0.0708573	-7.96456e-11	-0.366517	0.0244965	-0.0799826	0.0560078	0.207017	0.0668406	-3.47181e-11	-0.272338	0.0532251	-0.122718	-0.348948	-0.105969	-0.295026	0.740581	1.49973	-8.8546e-12	1.67228e-11	0.0691597	-0.226873	-0.0814927	1.09557	1.47375	-5.02041e-12	1.26636e-11
3.11	0.00910548	-0.0127678	-0.000810537	0.951057	1.01138	-0.499685	0.402627	0.0233264	0.010227	0.11116	-0.0386173	-0.0730332	-7.96456e-11	-0.370313	0.0215013	-0.083252	0.0640062	0.201145	0.069521	-3.47181e-11	-0.270363	0.0559585	-0.124673	-0.346263	-0.106785	-0.294559	0.740505	1.49988	-8.8546e-12	1.67228e-11	0.0667942	-0.225753	-0.0808932	1.09514	1.4752	-5.02041e-12	1.26636e-11
3.115	0.00992776	-0.0136715	0.00142678	0.958781	1.01107	-0.499462	0.401489	0.0236522	0.0064009	0.124291	-0.0438152	-0.0751635	-7.96456e-11	-0.373828	0.0182843	-0.0867698	0.0729712	0.194905	0.0719011	-3.47181e-11	-0.268465	0.0587149	-0.126387	-0.343428	-0.107692	-0.294139	0.740418	1.50003	-8.8546e-12	1.67228e-11	0.0641664	-0.224497	-0.0804863	1.09449	1.47662	-5.02041e-12	1.26636e-11
3.12	0.0109147	-0.0147069	0.00342524	0.966572	1.01081	-0.499191	0.400219	0.024252	0.00257466	0.138041	-0.0482851	-0.0772292	-7.96456e-11	-0.377054	0.0148491	-0.0905738	0.0828583	0.188244	0.0739436	-3.47181e-11	-0.266649	0.061484	-0.12777	-0.340453	-0.108687	-0.293769	0.740335	1.50015	-8.8546e-12	1.67228e-11	0.0613198	-0.223083	-0.0802657	1.09354	1.478	-5.02041e-12	1.26636e-11
3.125	0.0120695	-0.0159114	0.00509273	0.974424	1.0106	-0.498859	0.398827	0.0251973	-0.00113608	0.152206	-0.0520257	-0.0792189	-7.96456e-11	-0.379986	0.0111869	-0.0947064	0.0936389	0.181105	0.0756271	-3.47181e-11	-0.26493	0.0642652	-0.128738	-0.337353	-0.109763	-0.293457	0.740276	1.50022	-8.8546e-12	1.67228e-11	0.058298	-0.221491	-0.0802254	1.09224	1.47935	-5.02041e-12	1.26636e-11
3.13	0.0133994	-0.0173285	0.00635349	0.982329	1.01046	-0.498456	0.397318	0.0265562	-0.00463383	0.166635	-0.0550093	-0.081133	-7.96456e-11	-0.382617	0.00727397	-0.0992096	0.105305	0.173439	0.0769503	-3.47181e-11	-0.263337	0.0670701	-0.129227	-0.334144	-0.110919	-0.293211	0.740264	1.50026	-8.8546e-12	1.67228e-11	0.0551407	-0.219696	-0.0803595	1.09052	1.48067	-5.02041e-12	1.26636e-11
3.135	0.0149137	-0.0190039	0.0071551	0.990279	1.0104	-0.497973	0.39569	0.0283886	-0.00784447	0.181223	-0.0571788	-0.0829842	-7.96456e-11	-0.384937	0.00307278	-0.10412	0.117874	0.165202	0.0779307	-3.47181e-11	-0.261906	0.0699207	-0.12919	-0.330844	-0.11215	-0.293044	0.740323	1.50027	-8.8546e-12	1.67228e-11	0.051882	-0.21768	-0.08066	1.08833	1.482	-5.02041e-12	1.26636e-11
3.14	0.0166214	-0.0209808	0.00746948	0.998265	1.01042	-0.497406	0.393928	0.0307441	-0.0107151	0.195897	-0.0584552	-0.0847958	-7.96456e-11	-0.386927	-0.00146373	-0.109469	0.131387	0.156362	0.0785992	-3.47181e-11	-0.260669	0.0728454	-0.128603	-0.327479	-0.113454	-0.292964	0.740479	1.50025	-8.8546e-12	1.67228e-11	0.0485482	-0.215425	-0.0811162	1.08564	1.48333	-5.02041e-12	1.26636e-11
3.145	0.0185224	-0.0232924	0.00729095	1.00628	1.01054	-0.49675	0.392004	0.0336598	-0.0132075	0.210601	-0.0587499	-0.0865969	-7.96456e-11	-0.388556	-0.00638648	-0.115277	0.145916	0.146899	0.0789941	-3.47181e-11	-0.259658	0.0758713	-0.127457	-0.324075	-0.114829	-0.292982	0.740757	1.50021	-8.8546e-12	1.67228e-11	0.0451583	-0.212918	-0.081716	1.08244	1.48467	-5.02041e-12	1.26636e-11
3.15	0.0206137	-0.0259585	0.00663034	1.01431	1.01075	-0.496006	0.389877	0.0371594	-0.0152914	0.225276	-0.0579816	-0.0884147	-7.96456e-11	-0.389781	-0.0117451	-0.121563	0.16156	0.136804	0.079155	-3.47181e-11	-0.258899	0.0790186	-0.125754	-0.320662	-0.116273	-0.293105	0.741182	1.50015	-8.8546e-12	1.67228e-11	0.0417251	-0.210154	-0.0824462	1.07871	1.48603	-5.02041e-12	1.26636e-11
3.155	0.0228985	-0.0289859	0.0055087	1.02236	1.01106	-0.495175	0.387491	0.0412507	-0.0169415	0.239855	-0.0560917	-0.0902631	-7.96456e-11	-0.390545	-0.017584	-0.128335	0.17845	0.126073	0.0791163	-3.47181e-11	-0.258417	0.082294	-0.123504	-0.31727	-0.117785	-0.293334	0.741781	1.50005	-8.8546e-12	1.67228e-11	0.0382569	-0.207135	-0.0832937	1.07448	1.48738	-5.02041e-12	1.26636e-11
3.16	0.0253854	-0.0323655	0.00395836	1.03041	1.01146	-0.494259	0.384773	0.0459229	-0.0181389	0.254252	-0.0530574	-0.0921327	-7.96456e-11	-0.390785	-0.02394	-0.135594	0.196737	0.114706	0.0789	-3.47181e-11	-0.258236	0.085688	-0.120727	-0.313927	-0.11936	-0.293669	0.742578	1.4999	-8.8546e-12	1.67228e-11	0.0347588	-0.203869	-0.0842476	1.06975	1.4887	-5.02041e-12	1.26636e-11
3.165	0.0280877	-0.0360721	0.00202651	1.03846	1.01196	-0.493262	0.381638	0.051144	-0.0188758	0.268359	-0.0489007	-0.0939847	-7.96456e-11	-0.390431	-0.030842	-0.14332	0.216587	0.102699	0.0785122	-3.47181e-11	-0.258381	0.0891736	-0.117451	-0.310659	-0.120991	-0.294103	0.743599	1.49968	-8.8546e-12	1.67228e-11	0.0312343	-0.200379	-0.0852986	1.06459	1.48996	-5.02041e-12	1.26636e-11
3.17	0.0310201	-0.0400667	-0.000230873	1.04649	1.01255	-0.492187	0.377996	0.0568601	-0.0191615	0.282053	-0.0436914	-0.0957541	-7.96456e-11	-0.389412	-0.0383115	-0.151472	0.238161	0.0900305	0.0779421	-3.47181e-11	-0.258872	0.0927094	-0.113722	-0.307492	-0.122669	-0.294623	0.744872	1.49936	-8.8546e-12	1.67228e-11	0.0276857	-0.196693	-0.0864389	1.05902	1.49113	-5.02041e-12	1.26636e-11
3.175	0.0341935	-0.0443009	-0.00274869	1.0545	1.01324	-0.49104	0.373762	0.0629959	-0.019029	0.295197	-0.0375434	-0.097359	-7.96456e-11	-0.387656	-0.0463641	-0.159972	0.261597	0.0766573	0.0771622	-3.47181e-11	-0.259718	0.0962456	-0.109605	-0.304448	-0.124381	-0.295216	0.746423	1.49895	-8.8546e-12	1.67228e-11	0.0241142	-0.192849	-0.0876631	1.05312	1.49218	-5.02041e-12	1.26636e-11
3.18	0.0376037	-0.0487224	-0.00544417	1.06248	1.01399	-0.489828	0.36887	0.0694587	-0.0185381	0.307651	-0.0306059	-0.0987155	-6.7246e-11	-0.385091	-0.0550107	-0.1687	0.28698	0.0625074	0.076134	-2.08172e-11	-0.260909	0.0997325	-0.10519	-0.301547	-0.126114	-0.295869	0.748281	1.49844	-8.55712e-12	1.44876e-11	0.0205197	-0.188889	-0.0889644	1.04695	1.4931	-4.09064e-12	1.1154e-11
3.185	0.0412261	-0.0532788	-0.00821456	1.07042	1.01479	-0.48856	0.363284	0.0761445	-0.0177757	0.319283	-0.0230503	-0.0997524	-6.7246e-11	-0.381645	-0.0642576	-0.177492	0.314327	0.0474842	0.074814	-2.08172e-11	-0.262402	0.103129	-0.100593	-0.298812	-0.127853	-0.296568	0.750473	1.49786	-8.55712e-12	1.44876e-11	0.0168998	-0.184855	-0.0903349	1.04056	1.49389	-4.09064e-12	1.1154e-11
3.19	0.0450101	-0.0579184	-0.0109387	1.07832	1.01562	-0.48725	0.35701	0.0829445	-0.0168496	0.32998	-0.0150555	-0.100421	-6.7246e-11	-0.377248	-0.0741025	-0.186132	0.34357	0.0314822	0.0731598	-2.08172e-11	-0.26412	0.106408	-0.0959486	-0.296262	-0.12959	-0.297301	0.753021	1.49723	-8.55712e-12	1.44876e-11	0.0132505	-0.180787	-0.091761	1.03401	1.49456	-4.09064e-12	1.1154e-11
3.195	0.048868	-0.0625882	-0.0134839	1.08616	1.01645	-0.485915	0.350095	0.0897508	-0.0158771	0.339653	-0.00679414	-0.100703	-6.7246e-11	-0.371833	-0.0845263	-0.194367	0.374568	0.0144174	0.0711357	-2.08172e-11	-0.265958	0.109556	-0.0914052	-0.293915	-0.131318	-0.298054	0.755944	1.49657	-8.55712e-12	1.44876e-11	0.00956787	-0.17672	-0.0932235	1.02732	1.49511	-4.09064e-12	1.1154e-11
3.2	0.0526966	-0.0672337	-0.0157272	1.09394	1.01728	-0.484573	0.34262	0.0964625	-0.0149692	0.348247	0.0015789	-0.100609	-6.7246e-11	-0.365343	-0.0954843	-0.201915	0.407114	-0.00373093	0.0687205	-2.08172e-11	-0.267798	0.11257	-0.0871041	-0.291783	-0.133035	-0.298814	0.759253	1.49589	-8.55712e-12	1.44876e-11	0.0058517	-0.172684	-0.0946991	1.02052	1.49554	-4.09064e-12	1.1154e-11
3.205	0.0564096	-0.0718003	-0.0175707	1.10166	1.01808	-0.483242	0.334685	0.102989	-0.0142162	0.355741	0.00993379	-0.100176	-6.7246e-11	-0.357737	-0.106897	-0.208487	0.440969	-0.022873	0.0659182	-2.08172e-11	-0.269531	0.115449	-0.0831653	-0.289865	-0.134742	-0.299567	0.76295	1.49521	-8.55712e-12	1.44876e-11	0.00210977	-0.168701	-0.0961613	1.01363	1.49586	-4.09064e-12	1.1154e-11
